<?xml version="1.0" encoding="utf-8"?>
<svg viewBox="133.877 37.253 295.692 153.085" xmlns="http://www.w3.org/2000/svg">
  <path d="M 174.40520451660157 174.9709930419922 Q 167.38120451660157 174.9709930419922 161.41080451660156 171.4589930419922 Q 155.44040451660157 167.9469930419922 151.92840451660157 161.97659304199217 Q 148.41640451660157 156.0061930419922 148.41640451660157 148.9821930419922 L 148.41640451660157 132.65139304199218 L 175.63440451660156 132.65139304199218 L 175.63440451660156 147.5773930419922 Q 175.63440451660156 147.5773930419922 175.63440451660156 147.5773930419922 Q 175.63440451660156 147.5773930419922 175.63440451660156 147.5773930419922 L 247.27920451660157 147.5773930419922 Q 247.27920451660157 147.5773930419922 247.27920451660157 147.5773930419922 Q 247.27920451660157 147.5773930419922 247.27920451660157 147.5773930419922 L 247.27920451660157 48.538993041992185 L 274.8484045166016 48.538993041992185 L 274.8484045166016 148.9821930419922 Q 274.8484045166016 156.0061930419922 271.2486045166016 161.97659304199217 Q 267.64880451660156 167.9469930419922 261.76620451660153 171.4589930419922 Q 255.88360451660157 174.9709930419922 248.85960451660156 174.9709930419922 Z M 392.6672788085938 174.9709930419922 L 355.9668788085937 131.24659304199218 L 391.61367880859376 131.24659304199218 L 420.7632788085938 165.66419304199218 L 420.7632788085938 174.9709930419922 Z M 294.50687880859374 174.9709930419922 L 294.50687880859374 48.71459304199219 L 394.77447880859376 48.71459304199219 Q 401.97407880859373 48.71459304199219 407.85667880859376 52.22659304199219 Q 413.7392788085938 55.73859304199219 417.33907880859374 61.70899304199219 Q 420.93887880859376 67.67939304199218 420.93887880859376 74.70339304199219 L 420.93887880859376 107.36499304199218 Q 420.93887880859376 114.3889930419922 417.33907880859374 120.35939304199218 Q 413.7392788085938 126.32979304199219 407.85667880859376 129.8417930419922 Q 401.97407880859373 133.3537930419922 394.77447880859376 133.3537930419922 L 321.72487880859376 133.5293930419922 L 321.72487880859376 174.9709930419922 Z M 321.72487880859376 105.96019304199218 L 393.36967880859373 105.96019304199218 Q 393.36967880859373 105.96019304199218 393.36967880859373 105.96019304199218 Q 393.36967880859373 105.96019304199218 393.36967880859373 105.96019304199218 L 393.36967880859373 75.93259304199218 Q 393.36967880859373 75.93259304199218 393.36967880859373 75.93259304199218 Q 393.36967880859373 75.93259304199218 393.36967880859373 75.93259304199218 L 321.72487880859376 75.93259304199218 Q 321.72487880859376 75.93259304199218 321.72487880859376 75.93259304199218 Q 321.72487880859376 75.93259304199218 321.72487880859376 75.93259304199218 L 321.72487880859376 105.96019304199218 Q 321.72487880859376 105.96019304199218 321.72487880859376 105.96019304199218 Q 321.72487880859376 105.96019304199218 321.72487880859376 105.96019304199218 Z" transform="matrix(1, 0, 0, 1, 0, 0)" style="fill: rgb(235, 235, 235); white-space: pre;"/>
</svg>