<?xml version="1.0" encoding="utf-8"?>
<svg viewBox="85.565 172.293 347.497 169.383" xmlns="http://www.w3.org/2000/svg">
  <defs>
    <path id="path-1" data-type="circle" data-cx="44.9" data-cy="54" data-r="38.4" d="M44.9,54m-38.4,0a38.4,38.4 0 1, 0 76.8,0a38.4,38.4 0 1, 0 -76.8,0" data-uid="o_elhi2am2d_8"/>
    <path id="path-2" data-type="circle" data-cx="44.9" data-cy="54" data-r="38.4" d="M44.9,54m-38.4,0a38.4,38.4 0 1, 0 76.8,0a38.4,38.4 0 1, 0 -76.8,0" data-uid="o_elhi4jm3d_8"/>
  </defs>
  <svg xmlns="http://www.w3.org/2000/svg" width="512" height="512" style="overflow: visible;" viewBox="0 0 512 512" transform="matrix(0.8678, 0.496915, -0.63669, 0.787762, 841.305275, -250.1539)">
    <defs transform="matrix(0.9372000098228455, 0, 0, 0.9372000098228455, 16.0775089263916, 46.1824836730957)" data-uid="o_elhah7ain_6">
      <path id="b" data-type="circle" data-cx="44.9" data-cy="54" data-r="38.4" d="M44.9,54m-38.4,0a38.4,38.4 0 1, 0 76.8,0a38.4,38.4 0 1, 0 -76.8,0" data-uid="o_elhah7ain_7"/>
      <path d="M22.0022113,18 L15.9955775,18 C15.444837,18 15,17.5518945 15,16.9991283 L15,6.00087166 C15,5.44463086 15.4457352,5 15.9955775,5 L23.0044225,5 C23.555163,5 24,5.4481055 24,6.00087166 L24,7 L23.0032055,7 C23.0035748,6.68419415 23.0039798,6.50080887 23.0044225,6.50080887 C23.0044225,6.50080887 16,6.49854747 16,6.50158703 C16,6.50158703 15.9987631,15.9991911 15.9955775,15.9991911 C15.9955775,15.9991911 18.9298035,16.0001385 21,15.9999827 L21,18 L22.0022113,18 L22.0022113,18 Z M20.7797631,4 C20.259921,3 19,3 19,3 L3.00000001,3 C3.00000001,3 1,3 1,5 L1,16 L2,16 L2.09086182,16 L2,4.99687737 C2,4.09090909 3.07958466,4 3.07958466,4 L16.449575,4 L20.7797631,4 L20.7797631,4 Z M17.8432636,18 L0.294103592,18 C0.140363983,18 0,17.8678761 0,17.7048931 L0,16.2951069 C0,16.1312256 0.131674663,16 0.294103592,16 L14,16 L14,18 L17.8432636,18 L17.8432636,18 Z M9.49047852,16.5 C9.21959471,16.5 9,16.7319336 9,17 C9,17.2761424 9.21505737,17.5 9.49047852,17.5 L12.5095215,17.5 C12.7804053,17.5 13,17.2680664 13,17 C13,16.7238576 12.7849426,16.5 12.5095215,16.5 L9.49047852,16.5 Z M19.5,17.5 C19.7761424,17.5 20,17.2761424 20,17 C20,16.7238576 19.7761424,16.5 19.5,16.5 C19.2238576,16.5 19,16.7238576 19,17 C19,17.2761424 19.2238576,17.5 19.5,17.5 Z M22,9.00087166 L22,16.9991283 C22,17.5518945 22.444837,18 22.9955775,18 L27.0044225,18 C27.5542648,18 28,17.5553691 28,16.9991283 L28,9.00087166 C28,8.4481055 27.555163,8 27.0044225,8 L22.9955775,8 C22.4457352,8 22,8.44463086 22,9.00087166 Z M27.0044225,8.91927949 C27.0012369,8.91927949 27,15.9170433 27,15.9170433 C27,15.9198802 22.9955775,15.9177696 22.9955775,15.9177696 C22.9987631,15.9177696 23,8.92000578 23,8.92000578 C23,8.91716885 27.0044225,8.91927949 27.0044225,8.91927949 Z M25,17.5 C25.2761424,17.5 25.5,17.2761424 25.5,17 C25.5,16.7238576 25.2761424,16.5 25,16.5 C24.7238576,16.5 24.5,16.7238576 24.5,17 C24.5,17.2761424 24.7238576,17.5 25,17.5 Z" id="a" data-uid="o_elhah7ain_10"/>
      <path d="M22.0022113,18 L15.9955775,18 C15.444837,18 15,17.5518945 15,16.9991283 L15,6.00087166 C15,5.44463086 15.4457352,5 15.9955775,5 L23.0044225,5 C23.555163,5 24,5.4481055 24,6.00087166 L24,7 L23.0032055,7 C23.0035748,6.68419415 23.0039798,6.50080887 23.0044225,6.50080887 C23.0044225,6.50080887 16,6.49854747 16,6.50158703 C16,6.50158703 15.9987631,15.9991911 15.9955775,15.9991911 C15.9955775,15.9991911 18.9298035,16.0001385 21,15.9999827 L21,18 L22.0022113,18 L22.0022113,18 Z M20.7797631,4 C20.259921,3 19,3 19,3 L3.00000001,3 C3.00000001,3 1,3 1,5 L1,16 L2,16 L2.09086182,16 L2,4.99687737 C2,4.09090909 3.07958466,4 3.07958466,4 L16.449575,4 L20.7797631,4 L20.7797631,4 Z M17.8432636,18 L0.294103592,18 C0.140363983,18 0,17.8678761 0,17.7048931 L0,16.2951069 C0,16.1312256 0.131674663,16 0.294103592,16 L14,16 L14,18 L17.8432636,18 L17.8432636,18 Z M9.49047852,16.5 C9.21959471,16.5 9,16.7319336 9,17 C9,17.2761424 9.21505737,17.5 9.49047852,17.5 L12.5095215,17.5 C12.7804053,17.5 13,17.2680664 13,17 C13,16.7238576 12.7849426,16.5 12.5095215,16.5 L9.49047852,16.5 Z M19.5,17.5 C19.7761424,17.5 20,17.2761424 20,17 C20,16.7238576 19.7761424,16.5 19.5,16.5 C19.2238576,16.5 19,16.7238576 19,17 C19,17.2761424 19.2238576,17.5 19.5,17.5 Z M22,9.00087166 L22,16.9991283 C22,17.5518945 22.444837,18 22.9955775,18 L27.0044225,18 C27.5542648,18 28,17.5553691 28,16.9991283 L28,9.00087166 C28,8.4481055 27.555163,8 27.0044225,8 L22.9955775,8 C22.4457352,8 22,8.44463086 22,9.00087166 Z M27.0044225,8.91927949 C27.0012369,8.91927949 27,15.9170433 27,15.9170433 C27,15.9198802 22.9955775,15.9177696 22.9955775,15.9177696 C22.9987631,15.9177696 23,8.92000578 23,8.92000578 C23,8.91716885 27.0044225,8.91927949 27.0044225,8.91927949 Z M25,17.5 C25.2761424,17.5 25.5,17.2761424 25.5,17 C25.5,16.7238576 25.2761424,16.5 25,16.5 C24.7238576,16.5 24.5,16.7238576 24.5,17 C24.5,17.2761424 24.7238576,17.5 25,17.5 Z" id="a" data-uid="o_elhah7ain_11"/>
    </defs>
    <g transform="matrix(1.5495023727416992, 0, 0, 1.5495023727416992, 188.20774841308594, 145.55197143554688)" fill="#0d0f45" data-uid="o_elhah7ain_14" data-darkreader-inline-fill="" style="--darkreader-inline-fill:#0b0d3d;">
      <path transform="matrix(1, 0, 0, 1, 0, 0)" fill="#9596ff" data-type="circle" data-cx="48.669" data-cy="37.639" data-r="3.601" d="M48.669,37.639m-3.601,0a3.601,3.601 0 1, 0 7.202,0a3.601,3.601 0 1, 0 -7.202,0" data-uid="o_elhah7ain_15" data-darkreader-inline-fill="" style="--darkreader-inline-fill:#8fc2ff;"/>
      <path d="M56.064,36h-3.146c0.301,0,0.475,1.263,0.475,2s-0.174,1-0.475,2h3.146c1.134,0,2.053-0.866,2.053-2S57.198,36,56.064,36     z" transform="matrix(1, 0, 0, 1, 0, 0)" fill="#9596ff" data-uid="o_elhah7ain_16" data-darkreader-inline-fill="" style="--darkreader-inline-fill:#8fc2ff;"/>
      <path d="M43.945,38c0-0.737,0.173-2,0.474-2H31.436c-1.133,0-2.052,0.866-2.052,2s0.919,2,2.052,2h12.983     C44.118,39,43.945,38.737,43.945,38z" transform="matrix(1, 0, 0, 1, 0, 0)" fill="#0d0f45" data-uid="o_elhah7ain_17" data-darkreader-inline-fill="" style="--darkreader-inline-fill:#e3ded7;"/>
      <path transform="matrix(1, 0, 0, 1, 0, 0)" fill="#9596ff" data-type="circle" data-cx="37.175" data-cy="47.49" data-r="3.601" d="M37.175,47.49m-3.601,0a3.601,3.601 0 1, 0 7.202,0a3.601,3.601 0 1, 0 -7.202,0" data-uid="o_elhah7ain_18" data-darkreader-inline-fill="" style="--darkreader-inline-fill:#8fc2ff;"/>
      <path d="M32.452,47.5c0-0.737,0.173-1.5,0.474-2.5h-1.49c-1.133,0-2.052,1.366-2.052,2.5s0.919,2.5,2.052,2.5h1.49     C32.625,49,32.452,48.236,32.452,47.5z" transform="matrix(1, 0, 0, 1, 0, 0)" fill="#9596ff" data-uid="o_elhah7ain_19" data-darkreader-inline-fill="" style="--darkreader-inline-fill:#8fc2ff;"/>
      <path d="M56.064,45h-14.64c0.3,1,0.474,1.763,0.474,2.5c0,0.736-0.174,1.5-0.474,2.5h14.64c1.134,0,2.053-1.366,2.053-2.5     S57.198,45,56.064,45z" transform="matrix(1, 0, 0, 1, 0, 0)" fill="#0d0f45" data-uid="o_elhah7ain_20" data-darkreader-inline-fill="" style="--darkreader-inline-fill:#0b0d3d;"/>
      <path transform="matrix(1, 0, 0, 1, 0, 0)" fill="#9596ff" data-type="circle" data-cx="51.952" data-cy="57.342" data-r="3.601" d="M51.952,57.342m-3.601,0a3.601,3.601 0 1, 0 7.202,0a3.601,3.601 0 1, 0 -7.202,0" data-uid="o_elhah7ain_21" data-darkreader-inline-fill="" style="--darkreader-inline-fill:#8fc2ff;"/>
      <path d="M47.229,57c0-0.736,0.173-1,0.475-2H31.436c-1.133,0-2.052,0.867-2.052,2c0,1.135,0.919,2,2.052,2h16.268     C47.402,59,47.229,57.736,47.229,57z" transform="matrix(1, 0, 0, 1, 0, 0)" fill="#0d0f45" data-uid="o_elhah7ain_22" data-darkreader-inline-fill="" style="--darkreader-inline-fill:#0b0d3d;"/>
      <path d="M56.209,55.304c0.296,0.618,0.467,1.307,0.467,2.038s-0.171,1.42-0.467,2.038c1.064-0.075,1.908-0.954,1.908-2.038     S57.273,55.379,56.209,55.304z" transform="matrix(1, 0, 0, 1, 0, 0)" fill="#9596ff" data-uid="o_elhah7ain_23" data-darkreader-inline-fill="" style="--darkreader-inline-fill:#8fc2ff;"/>
      <path d="M14.773,47.502c1.067,0.662,1.902,1.402,2.503,2.222c0.601,0.819,1.022,1.864,1.263,3.135    c0.24,1.271,0.361,2.898,0.361,4.884c0,1.488,0.034,2.586,0.102,3.293c0.067,0.706,0.203,1.244,0.406,1.612    c0.203,0.368,0.447,0.609,0.733,0.722c0.285,0.113,0.774,0.222,1.466,0.327c0.571,0.075,1.045,0.354,1.421,0.835    c0.376,0.48,0.564,1.112,0.564,1.895c0,1.819-1.105,2.729-3.315,2.729c-1.369,0-2.59-0.285-3.666-0.856    c-1.075-0.572-1.906-1.38-2.492-2.425s-0.887-2.244-0.902-3.598c-0.045-2.286-0.09-4.12-0.135-5.503    c-0.045-1.384-0.113-2.278-0.203-2.685c-0.226-1.007-0.561-1.767-1.004-2.278c-0.444-0.511-1.023-0.988-1.737-1.432    c-0.714-0.443-1.222-0.842-1.522-1.195s-0.451-0.914-0.451-1.681c0-1.112,0.436-1.947,1.309-2.504    c1.083-0.676,1.853-1.251,2.312-1.725s0.782-1.083,0.97-1.827c0.188-0.744,0.296-1.556,0.327-2.436    c0.03-0.88,0.075-2.996,0.135-6.35c0.045-2.075,0.703-3.732,1.974-4.973s2.966-1.861,5.086-1.861c2.21,0,3.315,0.895,3.315,2.684    c0,0.812-0.185,1.451-0.553,1.917c-0.369,0.466-0.846,0.737-1.432,0.812c-0.872,0.121-1.481,0.301-1.827,0.542    c-0.346,0.241-0.571,0.707-0.676,1.398c-0.105,0.692-0.173,2.03-0.203,4.015c-0.03,1.94-0.146,3.53-0.35,4.771    c-0.203,1.24-0.602,2.297-1.195,3.169C16.761,46.006,15.9,46.795,14.773,47.502z" transform="matrix(1, 0, 0, 1, 0, 0)" fill="#0d0f45" data-uid="o_elhah7ain_24" data-darkreader-inline-fill="" style="--darkreader-inline-fill:#0b0d3d;"/>
      <path d="M70.145,45.134c-0.594-0.872-0.992-1.929-1.195-3.169c-0.203-1.241-0.318-2.831-0.35-4.771    c-0.029-1.985-0.098-3.323-0.203-4.015c-0.104-0.691-0.33-1.158-0.676-1.398c-0.346-0.24-0.955-0.421-1.827-0.542    c-0.587-0.075-1.063-0.346-1.433-0.812c-0.367-0.466-0.553-1.105-0.553-1.917c0-1.789,1.105-2.684,3.316-2.684    c2.119,0,3.815,0.62,5.086,1.861s1.928,2.898,1.974,4.973c0.06,3.354,0.104,5.47,0.136,6.35c0.029,0.879,0.139,1.691,0.326,2.436    c0.188,0.745,0.512,1.354,0.971,1.827c0.458,0.474,1.229,1.049,2.311,1.725c0.873,0.557,1.309,1.392,1.309,2.504    c0,0.767-0.15,1.327-0.451,1.681s-0.808,0.752-1.521,1.195c-0.715,0.443-1.293,0.921-1.737,1.432    c-0.443,0.512-0.778,1.271-1.004,2.278c-0.09,0.406-0.157,1.301-0.202,2.685c-0.046,1.383-0.091,3.217-0.136,5.503    c-0.015,1.354-0.315,2.553-0.902,3.598s-1.417,1.853-2.492,2.425c-1.075,0.571-2.297,0.856-3.665,0.856    c-2.211,0-3.316-0.909-3.316-2.729c0-0.782,0.188-1.414,0.564-1.895c0.376-0.481,0.85-0.76,1.421-0.835    c0.692-0.105,1.181-0.214,1.466-0.327c0.286-0.112,0.53-0.354,0.733-0.722c0.202-0.368,0.339-0.906,0.405-1.612    c0.068-0.707,0.102-1.805,0.102-3.293c0-1.985,0.121-3.612,0.361-4.884c0.24-1.271,0.662-2.315,1.264-3.135    s1.436-1.56,2.503-2.222C71.6,46.795,70.739,46.006,70.145,45.134z" transform="matrix(1, 0, 0, 1, 0, 0)" fill="#0d0f45" data-uid="o_elhah7ain_25" data-darkreader-inline-fill="" style="--darkreader-inline-fill:#0b0d3d;"/>
    </g>
    <g transform="matrix(1, 0, 0, 1, 84.34874725341797, 172.4548797607422)" fill="#0d0f45" data-uid="o_elhah7ain_26" data-darkreader-inline-fill="" style="--darkreader-inline-fill:#0b0d3d;">
      <path d="M70.439,94.401H30.561c-5.501,0-9.977-4-9.977-8.916V56.524c0-4.917,4.476-8.917,9.977-8.917h39.878  c5.501,0,9.976,4,9.976,8.917v28.961C80.415,90.401,75.94,94.401,70.439,94.401z M30.561,51.303c-3.463,0-6.281,2.343-6.281,5.222  v28.961c0,2.879,2.817,5.22,6.281,5.22h39.878c3.464,0,6.28-2.341,6.28-5.22V56.524c0-2.879-2.816-5.222-6.28-5.222H30.561z" transform="matrix(1, 0, 0, 1, 0, 0)" fill="#0d0f45" data-uid="o_elhah7ain_27" data-darkreader-inline-fill="" style="--darkreader-inline-fill:#0b0d3d;"/>
      <path d="M50.5,42.236c-10.274,0-18.633-8.358-18.633-18.633c0-10.275,8.359-18.635,18.633-18.635  c10.275,0,18.633,8.359,18.633,18.635C69.133,33.878,60.775,42.236,50.5,42.236z M50.5,8.665c-8.236,0-14.937,6.702-14.937,14.939  c0,8.236,6.701,14.938,14.937,14.938s14.938-6.701,14.938-14.938C65.438,15.366,58.736,8.665,50.5,8.665z" transform="matrix(1, 0, 0, 1, 0, 0)" fill="#0d0f45" data-uid="o_elhah7ain_28" data-darkreader-inline-fill="" style="--darkreader-inline-fill:#0b0d3d;"/>
      <path d="M70.878,62.291H58.45c-1.056,0-1.913-0.856-1.913-1.913c0-1.058,0.857-1.914,1.913-1.914h12.428  c1.059,0,1.914,0.856,1.914,1.914C72.792,61.435,71.937,62.291,70.878,62.291z" transform="matrix(1, 0, 0, 1, 0, 0)" fill="#9596ff" data-uid="o_elhah7ain_29" data-darkreader-inline-fill="" style="--darkreader-inline-fill:#8fc2ff;"/>
    </g>
    <g fill="#0d0f45" transform="matrix(1, 0, 0, 1, 0, 0)" data-uid="o_elhah7ain_30" data-darkreader-inline-fill="" style="--darkreader-inline-fill:#e3ded7;"/>
    <g fill="#0d0f45" transform="matrix(1, 0, 0, 1, 0, 0)" data-uid="o_elhah7ain_31" data-darkreader-inline-fill="" style="--darkreader-inline-fill:#e3ded7;"/>
    <g transform="matrix(1, 0, 0, 1, 326.9794006347656, 169.13937377929688)" fill="#0d0f45" data-uid="o_elhah7ain_32" data-darkreader-inline-fill="" style="--darkreader-inline-fill:#0b0d3d;">
      <path d="M80,28v35H20V28 M84,24H16v43h68V24L84,24z" transform="matrix(1, 0, 0, 1, 0, 0)" fill="#0d0f45" data-uid="o_elhah7ain_33" data-darkreader-inline-fill="" style="--darkreader-inline-fill:#0b0d3d;"/>
      <path transform="matrix(1, 0, 0, 1, 0, 0)" fill="#0d0f45" data-type="polygon" d="M57.614 74L57.29 74L42.705 74L42.379 74L5 74L5.964 76L94.035 76L95 74Z" data-uid="o_elhah7ain_34" data-darkreader-inline-fill="" style="--darkreader-inline-fill:#0b0d3d;"/>
      <path transform="matrix(1, 0, 0, 1, 0, 0)" fill="#0d0f45" data-type="polygon" d="M84.555 69L15.608 69L5 72L95 72Z" data-uid="o_elhah7ain_35" data-darkreader-inline-fill="" style="--darkreader-inline-fill:#0b0d3d;"/>
    </g>
  </svg>
  <path text="Jérôme Riffier" space="preserve" text-anchor="middle" offset="0.5" font-scale="contain" font-size="48" font-family="Orbitron" data-fl-textpath="" font-weight="400" font-style="normal" data-uid="o_elhi2am2d_35" d="M 120.558 303.051 L 120.558 303.051 L 120.558 277.261 L 124.042 277.261 L 124.042 303.051 C 124.042 304.483 123.54 305.701 122.536 306.704 C 121.534 307.706 120.316 308.208 118.884 308.208 L 118.884 308.208 L 98.252 308.208 C 96.819 308.208 95.603 307.706 94.599 306.704 C 93.597 305.701 93.095 304.483 93.095 303.051 L 93.095 303.051 L 93.095 300.596 L 96.579 300.596 L 96.579 303.051 C 96.579 303.51 96.741 303.904 97.069 304.233 C 97.399 304.561 97.793 304.725 98.252 304.725 L 98.252 304.725 L 118.884 304.725 C 119.343 304.725 119.738 304.561 120.066 304.233 C 120.394 303.904 120.558 303.51 120.558 303.051 Z M 133.847 283.28 L 148.801 283.28 C 150.263 283.28 151.501 283.786 152.517 284.801 C 153.539 285.823 154.047 287.049 154.047 288.481 L 154.047 288.481 L 154.047 297.507 L 132.163 297.507 L 132.163 303.006 C 132.163 303.466 132.33 303.859 132.664 304.187 C 132.992 304.516 133.387 304.68 133.847 304.68 L 133.847 304.68 L 154.047 304.68 L 154.047 308.208 L 133.847 308.208 C 132.415 308.208 131.187 307.701 130.167 306.686 C 129.151 305.666 128.645 304.439 128.645 303.006 L 128.645 303.006 L 128.645 288.481 C 128.645 287.049 129.151 285.823 130.167 284.801 C 131.187 283.786 132.415 283.28 133.847 283.28 L 133.847 283.28 Z M 132.163 288.481 L 132.163 293.98 L 150.475 293.98 L 150.475 288.481 C 150.475 288.022 150.312 287.627 149.983 287.299 C 149.654 286.97 149.26 286.807 148.801 286.807 L 148.801 286.807 L 133.847 286.807 C 133.387 286.807 132.992 286.97 132.664 287.299 C 132.33 287.627 132.163 288.022 132.163 288.481 L 132.163 288.481 Z M 140.42 275.372 L 136.98 275.372 L 138.485 269.399 L 141.88 269.399 L 140.42 275.372 Z M 161.305 283.28 L 161.305 283.28 L 175.319 283.28 L 175.319 286.807 L 161.305 286.807 C 160.851 286.807 160.459 286.97 160.124 287.299 C 159.795 287.627 159.63 288.022 159.63 288.481 L 159.63 288.481 L 159.63 308.208 L 156.11 308.208 L 156.11 288.481 C 156.11 287.049 156.62 285.823 157.634 284.801 C 158.647 283.786 159.872 283.28 161.305 283.28 Z M 183.275 283.28 L 183.275 283.28 L 198.229 283.28 C 199.693 283.28 200.931 283.786 201.946 284.801 C 202.966 285.823 203.477 287.049 203.477 288.481 L 203.477 288.481 L 203.477 303.006 C 203.477 304.439 202.966 305.666 201.946 306.686 C 200.931 307.701 199.693 308.208 198.229 308.208 L 198.229 308.208 L 183.275 308.208 C 181.843 308.208 180.616 307.701 179.595 306.686 C 178.58 305.666 178.073 304.439 178.073 303.006 L 178.073 303.006 L 178.073 288.481 C 178.073 287.049 178.58 285.823 179.595 284.801 C 180.616 283.786 181.843 283.28 183.275 283.28 Z M 198.229 286.807 L 198.229 286.807 L 183.275 286.807 C 182.816 286.807 182.422 286.97 182.094 287.299 C 181.76 287.627 181.592 288.022 181.592 288.481 L 181.592 288.481 L 181.592 303.006 C 181.592 303.466 181.76 303.859 182.094 304.187 C 182.422 304.516 182.816 304.68 183.275 304.68 L 183.275 304.68 L 198.229 304.68 C 198.69 304.68 199.083 304.516 199.411 304.187 C 199.74 303.859 199.904 303.466 199.904 303.006 L 199.904 303.006 L 199.904 288.481 C 199.904 288.022 199.74 287.627 199.411 287.299 C 199.083 286.97 198.69 286.807 198.229 286.807 Z M 189.848 271.764 L 187.269 275.415 L 185.505 275.415 L 188.559 270.385 L 191.094 270.385 L 194.146 275.415 L 192.338 275.415 L 189.848 271.764 Z M 207.943 283.28 L 240.868 283.28 C 242.33 283.28 243.564 283.786 244.566 284.801 C 245.569 285.823 246.071 287.049 246.071 288.481 L 246.071 288.481 L 246.071 308.208 L 242.587 308.208 L 242.587 288.481 C 242.587 288.022 242.414 287.627 242.068 287.299 C 241.728 286.97 241.327 286.807 240.868 286.807 L 240.868 286.807 L 230.507 286.807 C 230.047 286.807 229.654 286.97 229.326 287.299 C 228.996 287.627 228.833 288.022 228.833 288.481 L 228.833 288.481 L 228.833 308.208 L 225.269 308.208 L 225.269 288.481 C 225.269 288.022 225.102 287.627 224.767 287.299 C 224.438 286.97 224.046 286.807 223.585 286.807 L 223.585 286.807 L 213.189 286.807 C 212.729 286.807 212.335 286.97 212.007 287.299 C 211.679 287.627 211.514 288.022 211.514 288.481 L 211.514 288.481 L 211.514 308.208 L 207.943 308.208 L 207.943 283.28 Z M 255.055 283.28 L 270.01 283.28 C 271.471 283.28 272.71 283.786 273.725 284.801 C 274.747 285.823 275.256 287.049 275.256 288.481 L 275.256 288.481 L 275.256 297.507 L 253.372 297.507 L 253.372 303.006 C 253.372 303.466 253.538 303.859 253.873 304.187 C 254.201 304.516 254.595 304.68 255.055 304.68 L 255.055 304.68 L 275.256 304.68 L 275.256 308.208 L 255.055 308.208 C 253.622 308.208 252.397 307.701 251.374 306.686 C 250.359 305.666 249.853 304.439 249.853 303.006 L 249.853 303.006 L 249.853 288.481 C 249.853 287.049 250.359 285.823 251.374 284.801 C 252.397 283.786 253.622 283.28 255.055 283.28 L 255.055 283.28 Z M 253.372 288.481 L 253.372 293.98 L 271.684 293.98 L 271.684 288.481 C 271.684 288.022 271.519 287.627 271.19 287.299 C 270.863 286.97 270.468 286.807 270.01 286.807 L 270.01 286.807 L 255.055 286.807 C 254.595 286.807 254.201 286.97 253.873 287.299 C 253.538 287.627 253.372 288.022 253.372 288.481 L 253.372 288.481 Z M 322.403 282.464 L 322.403 282.464 L 322.403 291.535 C 322.403 292.967 321.902 294.186 320.9 295.188 C 319.897 296.191 318.679 296.693 317.246 296.693 L 317.246 296.693 L 312.519 296.693 L 322.234 308.208 L 317.632 308.208 L 307.961 296.693 L 296.615 296.693 C 296.359 296.693 295.8 296.634 294.941 296.515 L 294.941 296.515 L 294.941 308.208 L 291.456 308.208 L 291.456 277.307 L 317.246 277.307 C 318.679 277.307 319.897 277.807 320.9 278.81 C 321.902 279.813 322.403 281.031 322.403 282.464 Z M 296.615 293.164 L 296.615 293.164 L 317.246 293.164 C 317.705 293.164 318.093 293.006 318.411 292.69 C 318.72 292.374 318.876 291.989 318.876 291.535 L 318.876 291.535 L 318.876 282.464 C 318.876 282.005 318.72 281.61 318.411 281.282 C 318.093 280.953 317.705 280.789 317.246 280.789 L 317.246 280.789 L 296.615 280.789 C 296.155 280.789 295.761 280.953 295.433 281.282 C 295.105 281.61 294.941 282.005 294.941 282.464 L 294.941 282.464 L 294.941 291.535 C 294.941 291.989 295.105 292.374 295.433 292.69 C 295.761 293.006 296.155 293.164 296.615 293.164 Z M 330.311 308.208 L 326.793 308.208 L 326.793 283.28 L 330.311 283.28 L 330.311 308.208 Z M 326.793 278.64 L 326.793 275.112 L 330.311 275.112 L 330.311 278.64 L 326.793 278.64 Z M 348.066 278.64 L 338.95 278.64 C 338.491 278.64 338.096 278.805 337.768 279.133 C 337.44 279.461 337.274 279.854 337.274 280.315 L 337.274 280.315 L 337.274 283.28 L 348.066 283.28 L 348.066 286.807 L 337.274 286.807 L 337.274 308.208 L 333.747 308.208 L 333.747 280.315 C 333.747 278.852 334.249 277.62 335.251 276.617 C 336.255 275.615 337.488 275.112 338.95 275.112 L 338.95 275.112 L 348.066 275.112 L 348.066 278.64 Z M 365.56 278.64 L 356.443 278.64 C 355.984 278.64 355.591 278.805 355.261 279.133 C 354.933 279.461 354.77 279.854 354.77 280.315 L 354.77 280.315 L 354.77 283.28 L 365.56 283.28 L 365.56 286.807 L 354.77 286.807 L 354.77 308.208 L 351.24 308.208 L 351.24 280.315 C 351.24 278.852 351.743 277.62 352.746 276.617 C 353.748 275.615 354.981 275.112 356.443 275.112 L 356.443 275.112 L 365.56 275.112 L 365.56 278.64 Z M 372.217 308.208 L 368.699 308.208 L 368.699 283.28 L 372.217 283.28 L 372.217 308.208 Z M 368.699 278.64 L 368.699 275.112 L 372.217 275.112 L 372.217 278.64 L 368.699 278.64 Z M 382.797 283.28 L 397.752 283.28 C 399.214 283.28 400.452 283.786 401.467 284.801 C 402.488 285.823 402.998 287.049 402.998 288.481 L 402.998 288.481 L 402.998 297.507 L 381.113 297.507 L 381.113 303.006 C 381.113 303.466 381.28 303.859 381.615 304.187 C 381.943 304.516 382.337 304.68 382.797 304.68 L 382.797 304.68 L 402.998 304.68 L 402.998 308.208 L 382.797 308.208 C 381.363 308.208 380.137 307.701 379.117 306.686 C 378.102 305.666 377.595 304.439 377.595 303.006 L 377.595 303.006 L 377.595 288.481 C 377.595 287.049 378.102 285.823 379.117 284.801 C 380.137 283.786 381.363 283.28 382.797 283.28 L 382.797 283.28 Z M 381.113 288.481 L 381.113 293.98 L 399.425 293.98 L 399.425 288.481 C 399.425 288.022 399.261 287.627 398.932 287.299 C 398.605 286.97 398.211 286.807 397.752 286.807 L 397.752 286.807 L 382.797 286.807 C 382.337 286.807 381.943 286.97 381.615 287.299 C 381.28 287.627 381.113 288.022 381.113 288.481 L 381.113 288.481 Z M 412.36 283.28 L 412.36 283.28 L 426.375 283.28 L 426.375 286.807 L 412.36 286.807 C 411.907 286.807 411.512 286.97 411.179 287.299 C 410.85 287.627 410.687 288.022 410.687 288.481 L 410.687 288.481 L 410.687 308.208 L 407.167 308.208 L 407.167 288.481 C 407.167 287.049 407.675 285.823 408.69 284.801 C 409.704 283.786 410.928 283.28 412.36 283.28 Z" data-darkreader-inline-fill="" style="--darkreader-inline-fill:#0b0d3d; fill: rgb(13, 15, 69);"/>
  <path text="Développeur Full Stack" fill="rgba(13, 15, 69,1)" space="preserve" text-anchor="middle" offset="0.5" font-scale="contain" font-size="48" font-family="Orbitron" font-weight="400" font-style="normal" data-fl-textpath="" letter-spacing="9" data-uid="o_elhi4jm3d_36" d="M 115.778 334.022 L 115.778 321.751 L 126.004 321.751 C 126.572 321.751 127.055 321.95 127.453 322.347 C 127.851 322.745 128.049 323.228 128.049 323.796 L 128.049 323.796 L 128.049 331.977 C 128.049 332.545 127.851 333.028 127.453 333.426 C 127.055 333.823 126.572 334.022 126.004 334.022 L 126.004 334.022 L 115.778 334.022 Z M 126.672 331.977 L 126.672 331.977 L 126.672 323.796 C 126.672 323.613 126.605 323.457 126.473 323.327 C 126.343 323.198 126.187 323.132 126.004 323.132 L 126.004 323.132 L 117.823 323.132 C 117.643 323.132 117.487 323.198 117.355 323.327 C 117.224 323.457 117.159 323.613 117.159 323.796 L 117.159 323.796 L 117.159 331.977 C 117.159 332.159 117.224 332.315 117.355 332.446 C 117.487 332.576 117.643 332.641 117.823 332.641 L 117.823 332.641 L 126.004 332.641 C 126.187 332.641 126.343 332.576 126.473 332.446 C 126.605 332.315 126.672 332.159 126.672 331.977 Z M 135.134 324.137 L 141.064 324.137 C 141.644 324.137 142.135 324.338 142.537 324.741 C 142.942 325.146 143.145 325.632 143.145 326.2 L 143.145 326.2 L 143.145 329.779 L 134.466 329.779 L 134.466 331.959 C 134.466 332.142 134.532 332.298 134.665 332.428 C 134.796 332.558 134.952 332.623 135.134 332.623 L 135.134 332.623 L 143.145 332.623 L 143.145 334.022 L 135.134 334.022 C 134.565 334.022 134.079 333.822 133.675 333.419 C 133.272 333.014 133.071 332.528 133.071 331.959 L 133.071 331.959 L 133.071 326.2 C 133.071 325.632 133.272 325.146 133.675 324.741 C 134.079 324.338 134.565 324.137 135.134 324.137 L 135.134 324.137 Z M 134.466 326.2 L 134.466 328.381 L 141.728 328.381 L 141.728 326.2 C 141.728 326.018 141.663 325.861 141.532 325.731 C 141.402 325.601 141.246 325.536 141.064 325.536 L 141.064 325.536 L 135.134 325.536 C 134.952 325.536 134.796 325.601 134.665 325.731 C 134.532 325.861 134.466 326.018 134.466 326.2 L 134.466 326.2 Z M 137.741 321.001 L 136.377 321.001 L 136.973 318.633 L 138.319 318.633 L 137.741 321.001 Z M 152.9 332.659 L 157.538 324.137 L 159.174 324.137 L 153.703 334.022 L 152.083 334.022 L 146.63 324.137 L 148.266 324.137 L 152.9 332.659 Z M 165.352 324.137 L 171.282 324.137 C 171.862 324.137 172.354 324.338 172.756 324.741 C 173.161 325.146 173.363 325.632 173.363 326.2 L 173.363 326.2 L 173.363 329.779 L 164.685 329.779 L 164.685 331.959 C 164.685 332.142 164.752 332.298 164.884 332.428 C 165.014 332.558 165.17 332.623 165.352 332.623 L 165.352 332.623 L 173.363 332.623 L 173.363 334.022 L 165.352 334.022 C 164.785 334.022 164.298 333.822 163.893 333.419 C 163.491 333.014 163.29 332.528 163.29 331.959 L 163.29 331.959 L 163.29 326.2 C 163.29 325.632 163.491 325.146 163.893 324.741 C 164.298 324.338 164.785 324.137 165.352 324.137 L 165.352 324.137 Z M 164.685 326.2 L 164.685 328.381 L 171.946 328.381 L 171.946 326.2 C 171.946 326.018 171.881 325.861 171.752 325.731 C 171.621 325.601 171.465 325.536 171.282 325.536 L 171.282 325.536 L 165.352 325.536 C 165.17 325.536 165.014 325.601 164.884 325.731 C 164.752 325.861 164.685 326.018 164.685 326.2 L 164.685 326.2 Z M 177.956 331.959 L 177.956 320.899 L 179.352 320.899 L 179.352 331.959 C 179.352 332.142 179.417 332.298 179.548 332.428 C 179.68 332.558 179.836 332.623 180.016 332.623 L 180.016 332.623 L 181.688 332.623 L 181.688 334.022 L 180.016 334.022 C 179.448 334.022 178.963 333.822 178.561 333.419 C 178.158 333.014 177.956 332.528 177.956 331.959 L 177.956 331.959 Z M 188.174 324.137 L 188.174 324.137 L 194.104 324.137 C 194.684 324.137 195.175 324.338 195.578 324.741 C 195.983 325.146 196.185 325.632 196.185 326.2 L 196.185 326.2 L 196.185 331.959 C 196.185 332.528 195.983 333.014 195.578 333.419 C 195.175 333.822 194.684 334.022 194.104 334.022 L 194.104 334.022 L 188.174 334.022 C 187.606 334.022 187.12 333.822 186.715 333.419 C 186.313 333.014 186.111 332.528 186.111 331.959 L 186.111 331.959 L 186.111 326.2 C 186.111 325.632 186.313 325.146 186.715 324.741 C 187.12 324.338 187.606 324.137 188.174 324.137 Z M 194.104 325.536 L 194.104 325.536 L 188.174 325.536 C 187.992 325.536 187.836 325.601 187.706 325.731 C 187.573 325.861 187.507 326.018 187.507 326.2 L 187.507 326.2 L 187.507 331.959 C 187.507 332.142 187.573 332.298 187.706 332.428 C 187.836 332.558 187.992 332.623 188.174 332.623 L 188.174 332.623 L 194.104 332.623 C 194.286 332.623 194.443 332.558 194.573 332.428 C 194.703 332.298 194.768 332.142 194.768 331.959 L 194.768 331.959 L 194.768 326.2 C 194.768 326.018 194.703 325.861 194.573 325.731 C 194.443 325.601 194.286 325.536 194.104 325.536 Z M 201.151 324.137 L 209.162 324.137 C 209.729 324.137 210.217 324.338 210.621 324.741 C 211.023 325.146 211.225 325.632 211.225 326.2 L 211.225 326.2 L 211.225 331.959 C 211.225 332.528 211.023 333.014 210.621 333.419 C 210.217 333.822 209.729 334.022 209.162 334.022 L 209.162 334.022 L 202.55 334.022 L 202.55 337.943 L 201.151 337.943 L 201.151 324.137 Z M 209.826 331.959 L 209.826 331.959 L 209.826 326.2 C 209.826 326.018 209.761 325.861 209.63 325.731 C 209.5 325.601 209.344 325.536 209.162 325.536 L 209.162 325.536 L 203.232 325.536 C 203.05 325.536 202.89 325.601 202.753 325.731 C 202.618 325.861 202.55 326.018 202.55 326.2 L 202.55 326.2 L 202.55 331.959 C 202.55 332.142 202.618 332.298 202.753 332.428 C 202.89 332.558 203.05 332.623 203.232 332.623 L 203.232 332.623 L 209.162 332.623 C 209.344 332.623 209.5 332.558 209.63 332.428 C 209.761 332.298 209.826 332.142 209.826 331.959 Z M 215.664 324.137 L 223.675 324.137 C 224.242 324.137 224.729 324.338 225.134 324.741 C 225.536 325.146 225.737 325.632 225.737 326.2 L 225.737 326.2 L 225.737 331.959 C 225.737 332.528 225.536 333.014 225.134 333.419 C 224.729 333.822 224.242 334.022 223.675 334.022 L 223.675 334.022 L 217.063 334.022 L 217.063 337.943 L 215.664 337.943 L 215.664 324.137 Z M 224.339 331.959 L 224.339 331.959 L 224.339 326.2 C 224.339 326.018 224.274 325.861 224.143 325.731 C 224.013 325.601 223.857 325.536 223.675 325.536 L 223.675 325.536 L 217.745 325.536 C 217.563 325.536 217.402 325.601 217.266 325.731 C 217.13 325.861 217.063 326.018 217.063 326.2 L 217.063 326.2 L 217.063 331.959 C 217.063 332.142 217.13 332.298 217.266 332.428 C 217.402 332.558 217.563 332.623 217.745 332.623 L 217.745 332.623 L 223.675 332.623 C 223.857 332.623 224.013 332.558 224.143 332.428 C 224.274 332.298 224.339 332.142 224.339 331.959 Z M 232.19 324.137 L 238.12 324.137 C 238.7 324.137 239.191 324.338 239.594 324.741 C 239.999 325.146 240.2 325.632 240.2 326.2 L 240.2 326.2 L 240.2 329.779 L 231.523 329.779 L 231.523 331.959 C 231.523 332.142 231.589 332.298 231.722 332.428 C 231.852 332.558 232.008 332.623 232.19 332.623 L 232.19 332.623 L 240.2 332.623 L 240.2 334.022 L 232.19 334.022 C 231.622 334.022 231.135 333.822 230.731 333.419 C 230.329 333.014 230.127 332.528 230.127 331.959 L 230.127 331.959 L 230.127 326.2 C 230.127 325.632 230.329 325.146 230.731 324.741 C 231.135 324.338 231.622 324.137 232.19 324.137 L 232.19 324.137 Z M 231.523 326.2 L 231.523 328.381 L 238.784 328.381 L 238.784 326.2 C 238.784 326.018 238.719 325.861 238.589 325.731 C 238.458 325.601 238.302 325.536 238.12 325.536 L 238.12 325.536 L 232.19 325.536 C 232.008 325.536 231.852 325.601 231.722 325.731 C 231.589 325.861 231.523 326.018 231.523 326.2 L 231.523 326.2 Z M 253.827 331.959 L 253.827 324.137 L 255.223 324.137 L 255.223 331.959 C 255.223 332.528 255.021 333.014 254.619 333.419 C 254.215 333.822 253.723 334.022 253.145 334.022 L 253.145 334.022 L 247.212 334.022 C 246.644 334.022 246.159 333.822 245.756 333.419 C 245.351 333.014 245.149 332.528 245.149 331.959 L 245.149 331.959 L 245.149 324.137 L 246.548 324.137 L 246.548 331.959 C 246.548 332.142 246.613 332.298 246.743 332.428 C 246.874 332.558 247.03 332.623 247.212 332.623 L 247.212 332.623 L 253.145 332.623 C 253.326 332.623 253.484 332.558 253.621 332.428 C 253.759 332.298 253.827 332.142 253.827 331.959 L 253.827 331.959 Z M 262.235 324.137 L 262.235 324.137 L 267.792 324.137 L 267.792 325.536 L 262.235 325.536 C 262.055 325.536 261.899 325.601 261.767 325.731 C 261.637 325.861 261.572 326.018 261.572 326.2 L 261.572 326.2 L 261.572 334.022 L 260.176 334.022 L 260.176 326.2 C 260.176 325.632 260.377 325.146 260.78 324.741 C 261.182 324.338 261.667 324.137 262.235 324.137 Z M 280.029 334.022 L 280.029 321.751 L 291.229 321.751 L 291.229 323.132 L 281.41 323.132 L 281.41 327.187 L 289.304 327.187 L 289.304 328.586 L 281.41 328.586 L 281.41 334.022 L 280.029 334.022 Z M 304.141 331.959 L 304.141 324.137 L 305.536 324.137 L 305.536 331.959 C 305.536 332.528 305.335 333.014 304.932 333.419 C 304.528 333.822 304.036 334.022 303.459 334.022 L 303.459 334.022 L 297.525 334.022 C 296.958 334.022 296.472 333.822 296.07 333.419 C 295.665 333.014 295.462 332.528 295.462 331.959 L 295.462 331.959 L 295.462 324.137 L 296.861 324.137 L 296.861 331.959 C 296.861 332.142 296.927 332.298 297.057 332.428 C 297.187 332.558 297.343 332.623 297.525 332.623 L 297.525 332.623 L 303.459 332.623 C 303.639 332.623 303.797 332.558 303.935 332.428 C 304.072 332.298 304.141 332.142 304.141 331.959 L 304.141 331.959 Z M 310.489 331.959 L 310.489 320.899 L 311.885 320.899 L 311.885 331.959 C 311.885 332.142 311.95 332.298 312.08 332.428 C 312.212 332.558 312.369 332.623 312.549 332.623 L 312.549 332.623 L 314.221 332.623 L 314.221 334.022 L 312.549 334.022 C 311.98 334.022 311.496 333.822 311.093 333.419 C 310.691 333.014 310.489 332.528 310.489 331.959 L 310.489 331.959 Z M 318.832 331.959 L 318.832 320.899 L 320.228 320.899 L 320.228 331.959 C 320.228 332.142 320.293 332.298 320.423 332.428 C 320.555 332.558 320.712 332.623 320.892 332.623 L 320.892 332.623 L 322.564 332.623 L 322.564 334.022 L 320.892 334.022 C 320.323 334.022 319.839 333.822 319.436 333.419 C 319.034 333.014 318.832 332.528 318.832 331.959 L 318.832 331.959 Z M 347.26 323.796 L 347.26 323.796 L 347.26 324.272 L 345.88 324.272 L 345.88 323.796 C 345.88 323.613 345.815 323.457 345.684 323.327 C 345.554 323.198 345.398 323.132 345.216 323.132 L 345.216 323.132 L 337.034 323.132 C 336.852 323.132 336.696 323.198 336.566 323.327 C 336.436 323.457 336.371 323.613 336.371 323.796 L 336.371 323.796 L 336.371 326.541 C 336.371 326.723 336.436 326.876 336.566 326.999 C 336.696 327.124 336.852 327.187 337.034 327.187 L 337.034 327.187 L 345.216 327.187 C 345.784 327.187 346.266 327.386 346.664 327.784 C 347.062 328.182 347.26 328.664 347.26 329.232 L 347.26 329.232 L 347.26 331.977 C 347.26 332.545 347.062 333.028 346.664 333.426 C 346.266 333.823 345.784 334.022 345.216 334.022 L 345.216 334.022 L 337.034 334.022 C 336.466 334.022 335.983 333.823 335.586 333.426 C 335.188 333.028 334.989 332.545 334.989 331.977 L 334.989 331.977 L 334.989 331.501 L 336.371 331.501 L 336.371 331.977 C 336.371 332.159 336.436 332.315 336.566 332.446 C 336.696 332.576 336.852 332.641 337.034 332.641 L 337.034 332.641 L 345.216 332.641 C 345.398 332.641 345.554 332.576 345.684 332.446 C 345.815 332.315 345.88 332.159 345.88 331.977 L 345.88 331.977 L 345.88 329.232 C 345.88 329.05 345.815 328.897 345.684 328.774 C 345.554 328.649 345.398 328.586 345.216 328.586 L 345.216 328.586 L 337.034 328.586 C 336.466 328.586 335.983 328.387 335.586 327.99 C 335.188 327.592 334.989 327.109 334.989 326.541 L 334.989 326.541 L 334.989 323.796 C 334.989 323.228 335.188 322.745 335.586 322.347 C 335.983 321.95 336.466 321.751 337.034 321.751 L 337.034 321.751 L 345.216 321.751 C 345.784 321.751 346.266 321.95 346.664 322.347 C 347.062 322.745 347.26 323.228 347.26 323.796 Z M 357.905 324.137 L 357.905 325.536 L 353.626 325.536 L 353.626 331.959 C 353.626 332.142 353.691 332.298 353.821 332.428 C 353.952 332.558 354.108 332.623 354.29 332.623 L 354.29 332.623 L 357.905 332.623 L 357.905 334.022 L 354.29 334.022 C 353.71 334.022 353.221 333.822 352.824 333.419 C 352.426 333.014 352.227 332.528 352.227 331.959 L 352.227 331.959 L 352.227 320.899 L 353.626 320.899 L 353.626 324.137 L 357.905 324.137 Z M 362.396 324.137 L 370.39 324.137 C 370.97 324.137 371.461 324.338 371.863 324.741 C 372.265 325.146 372.466 325.632 372.466 326.2 L 372.466 326.2 L 372.466 334.022 L 364.456 334.022 C 363.888 334.022 363.402 333.822 363 333.419 C 362.598 333.014 362.396 332.528 362.396 331.959 L 362.396 331.959 L 362.396 328.381 L 371.054 328.381 L 371.054 326.2 C 371.054 326.018 370.988 325.861 370.858 325.731 C 370.728 325.601 370.572 325.536 370.39 325.536 L 370.39 325.536 L 362.396 325.536 L 362.396 324.137 Z M 364.456 332.623 L 371.054 332.623 L 371.054 329.779 L 363.792 329.779 L 363.792 331.959 C 363.792 332.142 363.857 332.298 363.988 332.428 C 364.12 332.558 364.276 332.623 364.456 332.623 L 364.456 332.623 Z M 379.296 332.623 L 379.296 332.623 L 387.306 332.623 L 387.306 334.022 L 379.296 334.022 C 378.727 334.022 378.241 333.822 377.836 333.419 C 377.433 333.014 377.233 332.528 377.233 331.959 L 377.233 331.959 L 377.233 326.2 C 377.233 325.632 377.433 325.146 377.836 324.741 C 378.241 324.338 378.727 324.137 379.296 324.137 L 379.296 324.137 L 387.27 324.137 L 387.27 325.536 L 379.296 325.536 C 379.113 325.536 378.957 325.601 378.826 325.731 C 378.694 325.861 378.628 326.018 378.628 326.2 L 378.628 326.2 L 378.628 331.959 C 378.628 332.142 378.694 332.298 378.826 332.428 C 378.957 332.558 379.113 332.623 379.296 332.623 Z M 396.109 328.381 L 399.993 324.137 L 401.836 324.137 L 397.352 329.079 L 401.818 334.022 L 399.993 334.022 L 396.109 329.779 L 393.381 329.779 L 393.381 334.022 L 391.982 334.022 L 391.982 320.899 L 393.381 320.899 L 393.381 328.381 L 396.109 328.381 Z" style=""/>
</svg>