<svg id="Layer_1" data-name="Layer 1" xmlns="http://www.w3.org/2000/svg" viewBox="0 0 250.66 55.56"><defs><style>.cls-1,.cls-7{fill:#333;}.cls-2{fill:#fff;}.cls-3{fill:#7a7a7a;}.cls-4{fill:#ec1c24;}.cls-5{fill:#a6a8ab;}.cls-6,.cls-7{isolation:isolate;}.cls-7{font-size:10.19px;font-family:ArialMT, Arial;letter-spacing:0.22em;}</style></defs><title>Artboard 1</title><path class="cls-1" d="M69.12,23.65h5.73V18.89H69.12V10.25h-9.4v8.64H56.86v4.76h2.86v17.2a3.07,3.07,0,0,0,3,3H82.18L82,43.62a3.8,3.8,0,0,1-1.18-2.76V37.3H69.12Z"/><path class="cls-1" d="M95.33,37.3H91.14V34.06h13.12a3.06,3.06,0,0,0,3-3v-9.2a3.06,3.06,0,0,0-3-3H84.71a3.06,3.06,0,0,0-3,3v19a3.06,3.06,0,0,0,3,3H112l-.23-.21a3.8,3.8,0,0,1-1.18-2.76V37.3ZM91.14,25.42h6.69V29.3H91.14Z"/><path class="cls-1" d="M121,25.42h7.15l3-6.54H114.57a3.06,3.06,0,0,0-3,3v19a3.06,3.06,0,0,0,3,3h20.74V37.3H121Z"/><path class="cls-1" d="M160.88,19.78a2.83,2.83,0,0,0-2.08-.89H145.68v-4l-9.4-7v36h9.4V23.65h6.69V43.84h6.35l3.06-3.8V21.86A2.83,2.83,0,0,0,160.88,19.78Z"/><path class="cls-2" d="M191.31,25.51H174.84v3.7h13a2.91,2.91,0,0,1,2.14.92,2.86,2.86,0,0,1,.92,2.09v8.64a3.15,3.15,0,0,1-3.06,3.06H159.66l5.4-6.71h16.3V34.15h-13a3.15,3.15,0,0,1-3.06-3.06V21.86a3.15,3.15,0,0,1,3.06-3.06h23Z"/><path class="cls-2" d="M198.49,55.42l-3.09-6.71h15.87V43.92h-13a3.15,3.15,0,0,1-3.06-3.06V18.8h9.58V37.21h6.52V18.8h9.58V52.37a3.15,3.15,0,0,1-3.06,3.06Z"/><path class="cls-3" d="M166.18,19.72a2.91,2.91,0,0,0-.92,2.14v9.23a3.15,3.15,0,0,0,3.06,3.06h13v3.06H165l-5.4,6.71h28.21a3.15,3.15,0,0,0,3.06-3.06V32.22a2.86,2.86,0,0,0-.92-2.09,2.91,2.91,0,0,0-2.14-.92h-13v-3.7H191.3V18.8h-23A2.91,2.91,0,0,0,166.18,19.72Z"/><path class="cls-3" d="M220.85,52.37V18.8h-9.58V37.21h-6.52V18.8h-9.58V40.86a3.15,3.15,0,0,0,3.06,3.06h13v4.79H195.4l3.09,6.71h19.29a3.15,3.15,0,0,0,3.06-3.06Z"/><path class="cls-3" d="M247.6,43.92a3.15,3.15,0,0,0,3.06-3.06V32.22a2.86,2.86,0,0,0-.92-2.09,2.91,2.91,0,0,0-2.14-.92h-13v-3.7h15.65l-5.58-6.71H228.05A3.15,3.15,0,0,0,225,21.86v9.23a3.15,3.15,0,0,0,3.06,3.06h13v3.06H221.63v6.71Z"/><path class="cls-4" d="M3.58,27.1c-2.24,2.81-5,6.3-2.72,9.43L6,43.1l16.83-21A7.67,7.67,0,0,1,26.44,20V0a6,6,0,0,0-2.59,1.62Z"/><path class="cls-4" d="M48.39,43.1l5.14-6.59c2.29-3.1-.49-6.6-2.73-9.41L30.49,1.57A5.88,5.88,0,0,0,28,0V20a7.57,7.57,0,0,1,3.55,2Z"/><polygon class="cls-5" points="35.73 29.5 27.19 25.96 18.65 29.5 7.71 43.3 27.19 35.9 46.67 43.3 35.73 29.5"/><g class="cls-6"><text class="cls-7" transform="translate(0 55.41)"><tspan xml:space="preserve">Créateur de solutions drones  </tspan></text></g></svg>